<?xml version="1.0" encoding="UTF-8" standalone="no"?>
<svg width="99px" height="77px" viewBox="0 0 99 77" version="1.1" xmlns="http://www.w3.org/2000/svg" xmlns:xlink="http://www.w3.org/1999/xlink" xmlns:sketch="http://www.bohemiancoding.com/sketch/ns">
    <!-- Generator: Sketch 3.4.4 (17249) - http://www.bohemiancoding.com/sketch -->
    <title>Hull Art Circle logo</title>
    <desc>Created with Sketch.</desc>
    <defs></defs>
    <g id="Page-1" stroke="none" stroke-width="1" fill="none" fill-rule="evenodd" sketch:type="MSPage">
        <path d="M76,41.41 C76,41.57 76.1123253,41.7 76.2505718,41.69 L82.566709,41.4 C82.7049555,41.39 82.8,41.25 82.8,41.09 L82.8,36.46 C82.8,36.3 82.7049555,36.16 82.566709,36.16 L76.2678526,35.97 C76.1296061,35.97 76.0172808,36.09 76.0172808,36.26 L76,41.41 L76,41.41 L76,41.41 Z M98.0424284,36.34 C97.683534,35.92 91.9975215,32.95 91.4275128,32.72 C91.1530642,32.79 88.070795,33.96 84.51,35.82 L84.5381486,41.49 C85.8822431,42.76 90.5337955,44.68 91.2375099,44.68 C91.8497415,44.68 92.3423416,44.48 92.3986387,44.46 L97.9368712,42 C98.0002055,41.97 98.0353913,41.89 98.0353913,41.8 C98.119837,37.8 98.1479856,36.53 98.0424284,36.34 L98.0424284,36.34 L98.0424284,36.34 Z M47.62,0.49 C26.79,0.49 10.61,15.41 8.92,35.68 C8.83,36.02 8.68,36.16 8.44,36.16 L3.59,36.19 C3.5,36.21 2.02816498,37.1962874 0.601318355,38.5399992 C2.02816498,39.8588431 3.51,41.38 4.06,41.38 L8.75,41.38 L8.78,41.62 C9.76,50.84 14.18,60.29 21.22,66.59 C28.44,73.05 37.82,76.59 47.63,76.59 C63.57,76.59 77.77,67.29 83.8,52.91 C83.85,52.8 83.8,52.67 83.69,52.62 L75.57,48.78 C75.46,48.73 75.33,48.77 75.28,48.88 C74.91,49.58 74.62,50.37 74.18,51.02 C73.85,51.51 73.18,52.06 72.59,52.06 C71.92,52.06 71.11,51.6 70.78,50.94 L66.1,41.37 L73.9,41.37 L73.9,36.11 L63.58,36.24 C63.58,36.24 52.78,14.21 51.98,12.58 C51.98,12.58 51.6,11.63 51.55,11.23 C51.5,10.8 51.6,10.48 51.7,10.32 C51.83,10.11 52.21,10.1 52.42,10.1 C52.64,10.1 52.82,10.14 52.84,10.15 C62.99,11.95 71.52,18.81 75.22,28.07 C75.26,28.18 75.39,28.24 75.5,28.2 L83.95,25.17 C84.1,25 84.11,24.93 84.08,24.88 C81.27,17.77 76.39,11.7 69.97,7.33 C63.4,2.85 55.67,0.49 47.62,0.49 Z M18.1,35.89 C18.42,31.98 19.53,28.82 21.41,25.34 C21.6,24.99 22.92,22.62 24.06,22.7 C24.78,22.75 24.87,23.88 24.87,23.88 L24.87,36.38 L18.07,36.38 L18.1,35.89 L18.1,35.89 L18.1,35.89 L18.1,35.89 L18.1,35.89 Z M24.72,51.88 C24.62,53.36 24.25,54.73 23.56,54.73 C22.98,54.73 21.1,51.65 20.15,49.47 C19.18,47.23 18.59,44.48 18.31,42.68 L18.36,41.56 L24.87,41.58 L24.87,45.42 C24.88,49.83 24.78,51.04 24.72,51.88 L24.72,51.88 L24.72,51.88 L24.72,51.88 L24.72,51.88 Z M41.88,61.45 C41.88,63.37 40.25,65.36 38.32,65.36 C35.63,65.36 33.48,62.8 33.28,61.12 C32.88,57.84 32.64,55.97 32.64,51.37 C32.64,48.69 32.64,45.98 32.62,43.3 C32.62,43.2 32.63,41.37 32.63,41.37 L41.88,41.37 L41.88,61.45 L41.88,61.45 L41.88,61.45 L41.88,61.45 L41.88,61.45 Z M41.88,36.38 L32.88,36.38 L32.88,22.58 C32.88,20.19 33.15,16.58 33.92,14.7 C34.44,13.42 35.69,12.28 37.1,11.62 C38,11.2 40.29,10.84 41.05,11.16 C42.18,11.64 42.04,13.53 42.08,15.42 C42.09,15.93 41.88,17.13 41.88,17.13 L41.88,36.38 L41.88,36.38 L41.88,36.38 L41.88,36.38 L41.88,36.38 Z M65.95,57.1 C66.06,57.34 66.07,57.96 66.05,58.73 C66.04,58.91 66.04,59.12 66.04,59.23 C66.05,60.42 65.83,61.18 64.55,62.11 C64.49,62.16 64.41,62.23 64.33,62.3 C64.22,62.39 64.14,62.46 64.09,62.49 C61.69,64.06 59.05,65.29 56.26,66.12 C56.18,66.15 56.14,66.16 56.11,66.16 C56.08,66.17 56.06,66.18 56.02,66.19 C54.66,66.6 53.33,66.79 51.94,66.79 C50.31,66.79 49.35,65.18 48.92,64.22 C48.75,63.84 48.67,63.16 48.6,62.38 C48.59,62.23 48.57,61.84 48.56,61.71 L48.56,41.37 L58.25,41.37 L65.95,57.1 L65.95,57.1 L65.95,57.1 L65.95,57.1 L65.95,57.1 Z M55.09,36.38 L47.87,36.38 L47.87,23.11 C47.87,23.11 47.68,22.59 48.09,22.64 C48.33,22.67 48.43,23 48.43,23 L55.09,36.38 L55.09,36.38 L55.09,36.38 L55.09,36.38 L55.09,36.38 Z" id="Hull-Art-Circle-logo" fill="#677170" sketch:type="MSShapeGroup"></path>
    </g>
</svg>