<?xml version="1.0" encoding="UTF-8" standalone="no"?>
<svg width="109px" height="77px" viewBox="0 0 109 77" version="1.1" xmlns="http://www.w3.org/2000/svg" xmlns:xlink="http://www.w3.org/1999/xlink" xmlns:sketch="http://www.bohemiancoding.com/sketch/ns">
    <g id="Page-1" stroke="none" stroke-width="1" fill="none" fill-rule="evenodd" sketch:type="MSPage">
        <g id="hac-logo" sketch:type="MSLayerGroup" fill="#FFFFFF">
                <path d="M80,41.41 C80,41.57 80.13,41.7 80.29,41.69 L87.6,41.4 C87.76,41.39 87.87,41.25 87.87,41.09 L87.87,36.46 C87.87,36.3 87.76,36.16 87.6,36.16 L80.31,35.97 C80.15,35.97 80.02,36.09 80.02,36.26 L80,41.41 L80,41.41 Z" id="Shape"></path>
                <path d="M108.74,36.34 C108.23,35.92 100.15,32.95 99.34,32.72 C98.95,32.79 94.57,33.96 89.51,35.82 L89.55,41.49 C91.46,42.76 98.07,44.68 99.07,44.68 C99.94,44.68 100.64,44.48 100.72,44.46 L108.59,42 C108.68,41.97 108.73,41.89 108.73,41.8 C108.85,37.8 108.89,36.53 108.74,36.34 L108.74,36.34 Z" id="Shape"></path>
                <path d="M73.97,7.33 C67.4,2.85 59.67,0.49 51.62,0.49 C30.79,0.49 14.61,15.41 12.92,35.68 L12.91,35.74 C12.83,36.02 12.68,36.16 12.44,36.16 L4.59,36.19 C4.56,36.19 4.53,36.2 4.5,36.21 C4.5,36.21 2.84,36.95 2.22,37.21 C1.66,37.45 0.47,38.17 0.18,38.35 C0.11,38.39 0.07,38.46 0.07,38.54 C0.07,38.62 0.11,38.72 0.17,38.76 C2.63,40.35 4.51,41.38 5.06,41.38 L12.75,41.38 L12.78,41.62 C13.76,50.84 18.18,60.29 25.22,66.59 C32.44,73.05 41.82,76.59 51.63,76.59 C67.57,76.59 81.77,67.29 87.8,52.91 C87.85,52.8 87.8,52.67 87.69,52.62 L79.57,48.78 C79.46,48.73 79.33,48.77 79.28,48.88 C78.91,49.58 78.62,50.37 78.18,51.02 C77.85,51.51 77.18,52.06 76.59,52.06 C75.92,52.06 75.11,51.6 74.78,50.94 L70.1,41.37 L77.9,41.37 L77.9,36.11 L67.58,36.24 C67.58,36.24 56.78,14.21 55.98,12.58 C55.98,12.58 55.6,11.63 55.55,11.23 C55.5,10.8 55.6,10.48 55.7,10.32 C55.83,10.11 56.21,10.1 56.42,10.1 C56.64,10.1 56.82,10.14 56.84,10.15 L56.96,10.17 C66.99,11.95 75.52,18.81 79.22,28.07 C79.26,28.18 79.39,28.24 79.5,28.2 L87.95,25.17 C88.01,25.15 88.05,25.11 88.08,25.05 C88.1,25 88.11,24.93 88.08,24.88 C85.27,17.77 80.39,11.7 73.97,7.33 L73.97,7.33 Z M22.1,35.89 C22.42,31.98 23.53,28.82 25.41,25.34 C25.6,24.99 26.92,22.62 28.06,22.7 C28.78,22.75 28.87,23.88 28.87,23.88 L28.87,36.38 L22.07,36.38 L22.1,35.89 L22.1,35.89 Z M28.72,51.88 C28.62,53.36 28.25,54.73 27.56,54.73 C26.98,54.73 25.1,51.65 24.15,49.47 C23.18,47.23 22.59,44.48 22.31,42.68 L22.36,41.56 L28.87,41.58 L28.87,45.42 C28.88,49.83 28.78,51.04 28.72,51.88 L28.72,51.88 Z M45.88,61.45 C45.88,63.37 44.25,65.36 42.32,65.36 C39.63,65.36 37.48,62.8 37.28,61.12 C36.88,57.84 36.64,55.97 36.64,51.37 C36.64,48.69 36.64,45.98 36.62,43.3 C36.62,43.2 36.63,41.37 36.63,41.37 L45.88,41.37 L45.88,61.45 L45.88,61.45 Z M45.88,36.38 L36.88,36.38 L36.88,22.58 C36.88,20.19 37.15,16.58 37.92,14.7 C38.44,13.42 39.69,12.28 41.1,11.62 C42,11.2 44.29,10.84 45.05,11.16 C46.18,11.64 46.04,13.53 46.08,15.42 C46.09,15.93 45.88,17.13 45.88,17.13 L45.88,36.38 L45.88,36.38 Z M69.95,57.1 C70.06,57.34 70.07,57.96 70.05,58.73 C70.04,58.91 70.04,59.12 70.04,59.23 C70.05,60.42 69.83,61.18 68.55,62.11 C68.49,62.16 68.41,62.23 68.33,62.3 C68.22,62.39 68.14,62.46 68.09,62.49 C65.69,64.06 63.05,65.29 60.26,66.12 C60.18,66.15 60.14,66.16 60.11,66.16 C60.08,66.17 60.06,66.18 60.02,66.19 C58.66,66.6 57.33,66.79 55.94,66.79 C54.31,66.79 53.35,65.18 52.92,64.22 C52.75,63.84 52.67,63.16 52.6,62.38 C52.59,62.23 52.57,61.84 52.56,61.71 L52.56,41.37 L62.25,41.37 L69.95,57.1 L69.95,57.1 Z M59.09,36.38 L51.87,36.38 L51.87,23.11 C51.87,23.11 51.68,22.59 52.09,22.64 C52.33,22.67 52.43,23 52.43,23 L59.09,36.38 L59.09,36.38 Z" id="Shape"></path>
            </g>
    </g>
</svg>