<?xml version="1.0" encoding="UTF-8" standalone="no"?>
<svg width="53px" height="37px" viewBox="0 0 53 37" version="1.1" xmlns="http://www.w3.org/2000/svg" xmlns:xlink="http://www.w3.org/1999/xlink" xmlns:sketch="http://www.bohemiancoding.com/sketch/ns">
    <!-- Generator: Sketch 3.4.4 (17249) - http://www.bohemiancoding.com/sketch -->
    <title>hac-footer</title>
    <desc>Created with Sketch.</desc>
    <defs></defs>
    <g id="Page-1" stroke="none" stroke-width="1" fill="none" fill-rule="evenodd" sketch:type="MSPage">
        <g id="EXHIB" sketch:type="MSArtboardGroup" transform="translate(-542.000000, -1568.000000)">
            <g id="FOOTER" sketch:type="MSLayerGroup" transform="translate(203.000000, 1568.000000)">
                <g id="hac-footer" transform="translate(339.000000, 0.000000)" sketch:type="MSShapeGroup">
                    <path d="M38.8990826,19.8983117 C38.8990826,19.9751948 38.9622936,20.0376623 39.0400917,20.0328571 L42.5944954,19.8935065 C42.6722936,19.8887013 42.7257798,19.8214286 42.7257798,19.7445455 L42.7257798,17.5197403 C42.7257798,17.4428571 42.6722936,17.3755844 42.5944954,17.3755844 L39.0498165,17.2842857 C38.9720183,17.2842857 38.9088073,17.3419481 38.9088073,17.4236364 L38.8990826,19.8983117 L38.8990826,19.8983117 Z" id="Shape" fill="#FFFFFF"></path>
                    <path d="M52.873578,17.4620779 C52.6255963,17.2602597 48.696789,15.8331169 48.3029358,15.7225974 C48.1133028,15.7562338 45.983578,16.3184416 43.523211,17.2122078 L43.5426606,19.9367532 C44.4713761,20.547013 47.6854128,21.4696104 48.1716514,21.4696104 C48.5946789,21.4696104 48.9350459,21.3735065 48.973945,21.3638961 L52.8006422,20.1818182 C52.8444037,20.1674026 52.8687156,20.128961 52.8687156,20.0857143 C52.9270642,18.1636364 52.9465138,17.5533766 52.873578,17.4620779 L52.873578,17.4620779 Z" id="Shape" fill="#D9DAE0"></path>
                    <path d="M35.9670642,3.52220779 C32.7724771,1.36948052 29.0138532,0.235454545 25.099633,0.235454545 C14.9712844,0.235454545 7.10394495,7.40480519 6.28220183,17.1449351 L6.27733945,17.1737662 C6.23844037,17.3083117 6.16550459,17.3755844 6.04880734,17.3755844 L2.23183486,17.39 C2.21724771,17.39 2.20266055,17.3948052 2.18807339,17.3996104 C2.18807339,17.3996104 1.38091743,17.7551948 1.07944954,17.8801299 C0.807155963,17.9954545 0.22853211,18.3414286 0.0875229358,18.4279221 C0.0534862385,18.4471429 0.0340366972,18.4807792 0.0340366972,18.5192208 C0.0340366972,18.5576623 0.0534862385,18.6057143 0.0826605505,18.6249351 C1.27880734,19.388961 2.19293578,19.8838961 2.46036697,19.8838961 L6.19954128,19.8838961 L6.21412844,19.9992208 C6.6906422,24.4296104 8.83981651,28.9705195 12.2629358,31.9977922 C15.773578,35.1019481 20.3344954,36.802987 25.1044954,36.802987 C32.8551376,36.802987 39.7597248,32.3341558 42.6917431,25.4242857 C42.716055,25.3714286 42.6917431,25.308961 42.6382569,25.2849351 L38.69,23.4397403 C38.6365138,23.4157143 38.5733028,23.4349351 38.5489908,23.4877922 C38.3690826,23.8241558 38.2280734,24.2037662 38.0141284,24.5161039 C37.8536697,24.7515584 37.5278899,25.0158442 37.2410092,25.0158442 C36.9152294,25.0158442 36.5213761,24.7948052 36.3609174,24.4776623 L34.0853211,19.8790909 L37.8779817,19.8790909 L37.8779817,17.3515584 L32.86,17.414026 C32.86,17.414026 27.6086239,6.82818182 27.219633,6.04493506 C27.219633,6.04493506 27.0348624,5.58844156 27.0105505,5.39623377 C26.9862385,5.18961039 27.0348624,5.03584416 27.0834862,4.95896104 C27.1466972,4.85805195 27.3314679,4.85324675 27.433578,4.85324675 C27.5405505,4.85324675 27.6280734,4.87246753 27.6377982,4.87727273 L27.6961468,4.88688312 C32.5731193,5.74220779 36.7207339,9.03857143 38.5198165,13.4881818 C38.5392661,13.541039 38.6024771,13.5698701 38.6559633,13.5506494 L42.7646789,12.0946753 C42.7938532,12.0850649 42.8133028,12.0658442 42.8278899,12.037013 C42.8376147,12.012987 42.8424771,11.9793506 42.8278899,11.9553247 C41.4615596,8.53883117 39.0887156,5.62207792 35.9670642,3.52220779 L35.9670642,3.52220779 Z M10.7458716,17.2458442 C10.9014679,15.367013 11.4411927,13.8485714 12.3553211,12.1763636 C12.4477064,12.0081818 13.0895413,10.8693506 13.6438532,10.9077922 C13.993945,10.9318182 14.0377064,11.4748052 14.0377064,11.4748052 L14.0377064,17.4812987 L10.7312844,17.4812987 L10.7458716,17.2458442 L10.7458716,17.2458442 Z M13.9647706,24.9293506 C13.9161468,25.6405195 13.7362385,26.2988312 13.4007339,26.2988312 C13.1187156,26.2988312 12.2045872,24.8188312 11.7426606,23.7712987 C11.2710092,22.6949351 10.9841284,21.3735065 10.8479817,20.5085714 L10.8722936,19.9703896 L14.0377064,19.98 L14.0377064,21.8251948 C14.0425688,23.9442857 13.993945,24.5257143 13.9647706,24.9293506 L13.9647706,24.9293506 Z M22.3086239,29.5279221 C22.3086239,30.4505195 21.516055,31.4067532 20.5776147,31.4067532 C19.269633,31.4067532 18.2242202,30.1766234 18.1269725,29.3693506 C17.9324771,27.7932468 17.8157798,26.8946753 17.8157798,24.6842857 C17.8157798,23.3964935 17.8157798,22.0942857 17.806055,20.8064935 C17.806055,20.7584416 17.8109174,19.8790909 17.8109174,19.8790909 L22.3086239,19.8790909 L22.3086239,29.5279221 L22.3086239,29.5279221 Z M22.3086239,17.4812987 L17.9324771,17.4812987 L17.9324771,10.8501299 C17.9324771,9.70168831 18.0637615,7.96701299 18.4381651,7.06363636 C18.6910092,6.44857143 19.2988073,5.90077922 19.9844037,5.58363636 C20.4220183,5.38181818 21.5355046,5.20883117 21.9050459,5.3625974 C22.4544954,5.59324675 22.386422,6.50142857 22.4058716,7.40961039 C22.4107339,7.65467532 22.3086239,8.2312987 22.3086239,8.2312987 L22.3086239,17.4812987 L22.3086239,17.4812987 Z M34.0123853,27.4376623 C34.0658716,27.552987 34.0707339,27.8509091 34.0610092,28.2209091 C34.0561468,28.3074026 34.0561468,28.4083117 34.0561468,28.4611688 C34.0610092,29.032987 33.9540367,29.3981818 33.3316514,29.8450649 C33.3024771,29.8690909 33.263578,29.9027273 33.2246789,29.9363636 C33.1711927,29.9796104 33.1322936,30.0132468 33.1079817,30.0276623 C31.9410092,30.7820779 30.6573394,31.3731169 29.3007339,31.7719481 C29.2618349,31.7863636 29.2423853,31.7911688 29.2277982,31.7911688 C29.213211,31.795974 29.2034862,31.8007792 29.1840367,31.8055844 C28.5227523,32.0025974 27.876055,32.0938961 27.2001835,32.0938961 C26.4076147,32.0938961 25.9408257,31.3202597 25.7317431,30.858961 C25.6490826,30.6763636 25.6101835,30.3496104 25.5761468,29.9748052 C25.5712844,29.9027273 25.5615596,29.7153247 25.5566972,29.6528571 L25.5566972,19.8790909 L30.2683486,19.8790909 L34.0123853,27.4376623 L34.0123853,27.4376623 Z M28.7318349,17.4812987 L25.2211927,17.4812987 L25.2211927,11.1048052 C25.2211927,11.1048052 25.1288073,10.8549351 25.3281651,10.878961 C25.4448624,10.8933766 25.4934862,11.0519481 25.4934862,11.0519481 L28.7318349,17.4812987 L28.7318349,17.4812987 Z" id="Shape" fill="#D9DDDD"></path>
                </g>
            </g>
        </g>
    </g>
</svg>