<svg xmlns="http://www.w3.org/2000/svg" width="50" height="43" xmlns:xlink="http://www.w3.org/1999/xlink"><defs><path id="a" d="M23.65.227C14.107.227 6.694 7.15 5.92 16.554c-.042.158-.11.222-.22.222l-3.597.014c-.04.01-.802.353-1.086.474-.256.11-.802.445-.935.53-.05.124-.032.17-.004.19 1.127.736 1.988 1.214 2.24 1.214H5.84c.464 4.39 2.742 8.326 5.818 12.29C14.733 35.452 22.625 42.57 23.16 42.57c.676 0 14.303-11.35 17.066-18.022.023-.05 0-.112-.05-.135l-3.72-1.78c-.05-.025-.11-.006-.134.045-.17.325-.302.69-.504.993-.15.23-.458.49-.728.49-.307 0-.678-.21-.83-.52l-2.144-4.44h3.574v-2.44l-4.728.06-5.315-10.98s-.174-.44-.197-.62c-.023-.2.023-.346.07-.42.06-.1.233-.102.33-.102.1 0 .182.014.19.02 4.652.833 8.56 4.016 10.255 8.31.018.05.078.08.128.06l3.87-1.403c.07-.08.075-.113.06-.136-1.286-3.3-3.522-6.114-6.463-8.14C30.88 1.32 27.338.23 23.65.23zM10.125 16.65c.147-1.813.655-3.28 1.517-4.893.087-.163.69-1.262 1.214-1.225.33.023.37.547.37.547v5.8H10.11l.016-.23zm3.033 7.42c-.046.686-.215 1.322-.53 1.322-.267 0-1.128-1.43-1.564-2.44-.444-1.04-.714-2.315-.843-3.15l.03-.52 2.99.01v1.78c.006 2.047-.04 2.608-.07 2.998zm7.862 4.44c0 .89-.747 1.814-1.63 1.814-1.233 0-2.218-1.188-2.31-1.967-.183-1.522-.293-2.39-.293-4.524 0-1.243 0-2.5-.01-3.744l.005-.9h4.238v9.31zm0-11.63h-4.123v-6.404c0-1.11.123-2.784.476-3.656.238-.594.81-1.123 1.457-1.43.412-.194 1.462-.36 1.81-.212.517.222.453 1.1.472 1.976.004.237-.092.793-.092.793v8.932zm11.028 9.612c.05.11.055.4.046.756-.005.083-.005.18-.005.232 0 .552-.1.905-.69 1.336l-.1.088c-.05.042-.09.074-.11.088-1.1.73-2.31 1.3-3.59 1.684-.04.014-.06.02-.07.02l-.048.013c-.623.19-1.23.27-1.87.27-.746 0-1.186-.75-1.383-1.19-.077-.18-.114-.49-.146-.86-.006-.07-.015-.25-.02-.31v-9.43h4.44l3.53 7.3zm-4.976-9.613h-3.308v-6.16s-.087-.24.1-.22c.11.01.157.16.157.16l3.06 6.21z"/></defs><g fill="none" fill-rule="evenodd"><path fill="#41A9A1" d="M36.686 19.246c0 .074.06.134.133.13l3.34-.135c.07 0 .12-.06.12-.14v-2.15c0-.07-.05-.14-.127-.14l-3.34-.08c-.073 0-.133.06-.133.14l-.01 2.39zm13.167-2.352c-.233-.195-3.935-1.573-4.306-1.68-.18.033-2.186.575-4.504 1.438l.018 2.63c.88.59 3.91 1.48 4.37 1.48.4 0 .72-.092.76-.1l3.61-1.142c.04-.014.065-.05.065-.093.053-1.856.07-2.445 0-2.533z"/><g transform="translate(.034 .034)"><use fill="#41A9A1" xlink:href="#a"/><use xlink:href="#a"/><use xlink:href="#a"/><use xlink:href="#a"/><use xlink:href="#a"/><use xlink:href="#a"/><use xlink:href="#a"/></g></g></svg>